<?xml version="1.0" encoding="UTF-8" standalone="no"?>
<!DOCTYPE svg PUBLIC "-//W3C//DTD SVG 1.1//EN"
 "http://www.w3.org/Graphics/SVG/1.1/DTD/svg11.dtd">
<!-- Generated by graphviz version 12.2.1 (20241206.2353)
 -->
<!-- Title: G Pages: 1 -->
<svg width="172pt" height="67pt"
 viewBox="0.00 0.00 172.45 66.95" xmlns="http://www.w3.org/2000/svg" xmlns:xlink="http://www.w3.org/1999/xlink">
<g id="graph0" class="graph" transform="scale(1 1) rotate(0) translate(21.6 45.35)">
<title>G</title>
<polygon fill="#111111" stroke="none" points="-21.6,21.6 -21.6,-45.35 150.85,-45.35 150.85,21.6 -21.6,21.6"/>
<!-- src/pages/_app.tsx -->
<g id="node1" class="node">
<title>src/pages/_app.tsx</title>
<path fill="none" stroke="#cfffac" d="M121.33,-23.75C121.33,-23.75 7.92,-23.75 7.92,-23.75 3.96,-23.75 0,-19.79 0,-15.83 0,-15.83 0,-7.92 0,-7.92 0,-3.96 3.96,0 7.92,0 7.92,0 121.33,0 121.33,0 125.29,0 129.25,-3.96 129.25,-7.92 129.25,-7.92 129.25,-15.83 129.25,-15.83 129.25,-19.79 125.29,-23.75 121.33,-23.75"/>
<text text-anchor="middle" x="64.62" y="-6.45" font-family="Arial" font-size="14.00" fill="#cfffac">src/pages/_app.tsx</text>
</g>
</g>
</svg>
