<svg xmlns="http://www.w3.org/2000/svg" width="600" height="400" viewBox="0 0 600 400">
  <!-- Background -->
  <rect width="600" height="400" fill="#f5f5f4" />
  
  <!-- Wood grain pattern -->
  <g fill="#713f12" opacity="0.9">
    <!-- Row 1 -->
    <rect x="10" y="10" width="190" height="95" rx="2" fill="#854d0e" stroke="#422006" stroke-width="1" />
    <rect x="205" y="10" width="190" height="95" rx="2" fill="#854d0e" stroke="#422006" stroke-width="1" />
    <rect x="400" y="10" width="190" height="95" rx="2" fill="#854d0e" stroke="#422006" stroke-width="1" />
    
    <!-- Row 2 -->
    <rect x="10" y="110" width="130" height="95" rx="2" fill="#713f12" stroke="#422006" stroke-width="1" />
    <rect x="145" y="110" width="150" height="95" rx="2" fill="#713f12" stroke="#422006" stroke-width="1" />
    <rect x="300" y="110" width="170" height="95" rx="2" fill="#713f12" stroke="#422006" stroke-width="1" />
    <rect x="475" y="110" width="115" height="95" rx="2" fill="#713f12" stroke="#422006" stroke-width="1" />
    
    <!-- Row 3 -->
    <rect x="10" y="210" width="170" height="95" rx="2" fill="#854d0e" stroke="#422006" stroke-width="1" />
    <rect x="185" y="210" width="150" height="95" rx="2" fill="#854d0e" stroke="#422006" stroke-width="1" />
    <rect x="340" y="210" width="120" height="95" rx="2" fill="#854d0e" stroke="#422006" stroke-width="1" />
    <rect x="465" y="210" width="125" height="95" rx="2" fill="#854d0e" stroke="#422006" stroke-width="1" />
    
    <!-- Row 4 -->
    <rect x="10" y="310" width="140" height="80" rx="2" fill="#713f12" stroke="#422006" stroke-width="1" />
    <rect x="155" y="310" width="160" height="80" rx="2" fill="#713f12" stroke="#422006" stroke-width="1" />
    <rect x="320" y="310" width="130" height="80" rx="2" fill="#713f12" stroke="#422006" stroke-width="1" />
    <rect x="455" y="310" width="135" height="80" rx="2" fill="#713f12" stroke="#422006" stroke-width="1" />
  </g>
  
  <!-- Wood grain details -->
  <g stroke="#422006" stroke-width="0.5" opacity="0.7">
    <!-- Row 1 details -->
    <line x1="50" y1="10" x2="50" y2="105" />
    <line x1="100" y1="10" x2="100" y2="105" />
    <line x1="150" y1="10" x2="150" y2="105" />
    
    <line x1="240" y1="10" x2="240" y2="105" />
    <line x1="290" y1="10" x2="290" y2="105" />
    <line x1="350" y1="10" x2="350" y2="105" />
    
    <line x1="440" y1="10" x2="440" y2="105" />
    <line x1="500" y1="10" x2="500" y2="105" />
    <line x1="550" y1="10" x2="550" y2="105" />
    
    <!-- Row 2 details -->
    <line x1="40" y1="110" x2="40" y2="205" />
    <line x1="90" y1="110" x2="90" y2="205" />
    
    <line x1="180" y1="110" x2="180" y2="205" />
    <line x1="230" y1="110" x2="230" y2="205" />
    
    <line x1="340" y1="110" x2="340" y2="205" />
    <line x1="390" y1="110" x2="390" y2="205" />
    <line x1="440" y1="110" x2="440" y2="205" />
    
    <line x1="520" y1="110" x2="520" y2="205" />
    
    <!-- Row 3 details -->
    <line x1="50" y1="210" x2="50" y2="305" />
    <line x1="100" y1="210" x2="100" y2="305" />
    <line x1="150" y1="210" x2="150" y2="305" />
    
    <line x1="220" y1="210" x2="220" y2="305" />
    <line x1="280" y1="210" x2="280" y2="305" />
    
    <line x1="370" y1="210" x2="370" y2="305" />
    <line x1="410" y1="210" x2="410" y2="305" />
    
    <line x1="500" y1="210" x2="500" y2="305" />
    <line x1="540" y1="210" x2="540" y2="305" />
    
    <!-- Row 4 details -->
    <line x1="40" y1="310" x2="40" y2="390" />
    <line x1="90" y1="310" x2="90" y2="390" />
    
    <line x1="200" y1="310" x2="200" y2="390" />
    <line x1="250" y1="310" x2="250" y2="390" />
    
    <line x1="350" y1="310" x2="350" y2="390" />
    <line x1="400" y1="310" x2="400" y2="390" />
    
    <line x1="490" y1="310" x2="490" y2="390" />
    <line x1="530" y1="310" x2="530" y2="390" />
  </g>
  
  <!-- Label -->
  <rect x="10" y="350" width="160" height="40" rx="5" fill="rgba(255,255,255,0.8)" />
  <text x="90" y="375" font-family="Arial" font-size="16" text-anchor="middle" fill="#422006" font-weight="bold">Walnut Flooring</text>
</svg> 