<svg width="100" height="100" viewBox="0 0 100 100" fill="none" xmlns="http://www.w3.org/2000/svg">
  <rect width="100" height="100" rx="50" fill="#E2E8F0"/>
  <path d="M50 30C39.5 30 31 38.5 31 49C31 55.2 34.1 60.8 39 64.1C39.1 64.2 39.2 64.4 39.2 64.6C39.1 65.2 38.8 66.5 38.3 67.1C38 67.5 37.5 67.7 36.8 67.9C36.2 68.1 35.4 68.1 34.5 68.2C34.1 68.3 33.7 68.5 33.4 68.8C33.1 69.1 33 69.5 33 69.9C33 70.3 33.1 70.6 33.3 71C33.5 71.3 33.8 71.5 34.2 71.6C34.5 71.7 34.8 71.7 35.1 71.7C36.1 71.7 37 71.6 37.9 71.4C38.8 71.2 39.6 70.9 40.3 70.4C41 69.9 41.6 69.3 42 68.5C42.4 67.7 42.7 66.8 42.8 65.7C42.9 65.3 43 65 43.2 64.8C43.3 64.6 43.5 64.5 43.8 64.4C44.1 64.2 44.5 64.1 45 64C45.4 63.9 45.9 63.7 46.5 63.6C47.1 63.5 47.7 63.5 48.3 63.5C48.9 63.5 49.5 63.5 50 63.5C60.5 63.5 69 55 69 44.5C69 33.5 60.5 30 50 30Z" fill="#A0AEC0"/>
  <path d="M50 30C39.5 30 31 38.5 31 49C31 55.2 34.1 60.8 39 64.1C39.1 64.2 39.2 64.4 39.2 64.6C39.1 65.2 38.8 66.5 38.3 67.1C38 67.5 37.5 67.7 36.8 67.9C36.2 68.1 35.4 68.1 34.5 68.2C34.1 68.3 33.7 68.5 33.4 68.8C33.1 69.1 33 69.5 33 69.9C33 70.3 33.1 70.6 33.3 71C33.5 71.3 33.8 71.5 34.2 71.6C34.5 71.7 34.8 71.7 35.1 71.7C36.1 71.7 37 71.6 37.9 71.4C38.8 71.2 39.6 70.9 40.3 70.4C41 69.9 41.6 69.3 42 68.5C42.4 67.7 42.7 66.8 42.8 65.7C42.9 65.3 43 65 43.2 64.8C43.3 64.6 43.5 64.5 43.8 64.4C44.1 64.2 44.5 64.1 45 64C45.4 63.9 45.9 63.7 46.5 63.6C47.1 63.5 47.7 63.5 48.3 63.5C48.9 63.5 49.5 63.5 50 63.5C60.5 63.5 69 55 69 44.5C69 33.5 60.5 30 50 30Z" stroke="#718096" stroke-width="2"/>
</svg>