<?xml version="1.0" encoding="UTF-8"?><svg id="Layer_1" xmlns="http://www.w3.org/2000/svg" viewBox="0 0 230 78.54"><defs><style>.cls-1{fill:#fff;}</style></defs><path class="cls-1" d="M35.16,26.99c6.78,2.81,11.1,9.54,10.81,16.88,.08,3.59-.89,7.13-2.8,10.18-1.94,2.96-4.72,5.28-7.98,6.66-3.87,1.62-8.03,2.41-12.22,2.32H13.13c-.46,.01-.83,.39-.84,.85v12.89c0,.47-.38,.86-.86,.86H.86c-.47,0-.86-.38-.86-.86V25.5c0-.47,.39-.86,.86-.86H22.94c4.2-.1,8.36,.7,12.22,2.35Zm-4.5,23.65c1.91-1.59,2.87-3.85,2.87-6.77s-.96-5.21-2.87-6.85c-1.92-1.59-4.72-2.39-8.41-2.39H13.13c-.47,.01-.84,.39-.84,.86v16.68c0,.47,.39,.86,.86,.86h9.1c3.69,0,6.49-.8,8.41-2.39Z"/><path class="cls-1" d="M92.65,77.63c-.28,0-.55-.14-.71-.37l-9.96-14.39h-10.42c-.48,0-.86,.39-.86,.86h0v13.04c0,.47-.38,.86-.86,.86h-10.54c-.47,0-.86-.38-.86-.86V25.5c0-.47,.39-.86,.86-.86h22.08c4.19-.11,8.36,.68,12.22,2.32,6.78,2.81,11.1,9.54,10.81,16.88,.09,3.6-.9,7.15-2.84,10.18-1.78,2.64-4.24,4.76-7.13,6.12-.43,.2-.62,.71-.42,1.14,.02,.05,.05,.09,.07,.13l10.35,14.84c.27,.39,.18,.92-.21,1.19-.15,.1-.32,.16-.5,.16l-11.1,.03Zm-3.55-40.61c-1.92-1.59-4.72-2.39-8.41-2.39h-9.13c-.47,0-.86,.38-.86,.86v16.75c0,.48,.39,.86,.86,.86h9.13c3.69,0,6.49-.81,8.41-2.42,1.92-1.62,2.88-3.89,2.87-6.81,0-2.98-.96-5.26-2.87-6.85Z"/><path class="cls-1" d="M219.18,26.99c6.78,2.81,11.1,9.54,10.81,16.88,.08,3.59-.89,7.13-2.8,10.18-1.94,2.96-4.72,5.28-7.98,6.66-3.87,1.62-8.03,2.41-12.22,2.32h-9.84c-.47,0-.86,.38-.86,.86v12.89c0,.47-.38,.86-.86,.86h-10.54c-.47,0-.86-.38-.86-.86V25.5c0-.47,.39-.86,.86-.86h22.08c4.2-.1,8.36,.7,12.22,2.35Zm-4.51,23.65c1.92-1.59,2.88-3.85,2.88-6.77s-.96-5.21-2.88-6.85c-1.91-1.59-4.72-2.39-8.4-2.39h-9.13c-.47,0-.86,.38-.86,.86v16.68c0,.47,.39,.86,.86,.86h9.13c3.69,0,6.49-.8,8.4-2.39Z"/><path class="cls-1" d="M142.78,11.34l-15.21,14.27c-.14,.13-.33,.21-.53,.21h-8.91c-.43,0-.77-.34-.78-.77,0-.21,.08-.41,.23-.55L142.22,.22c.3-.3,.79-.3,1.09,0l24.62,24.28c.3,.3,.3,.79,0,1.09-.14,.15-.34,.23-.54,.23h-8.91c-.2,0-.38-.08-.53-.21l-15.17-14.27"/><path class="cls-1" d="M167.97,37.09c-2.51-4.14-6.09-7.53-10.37-9.8l-1.37-.77c-.19-.1-.42-.03-.52,.15-.03,.06-.05,.12-.05,.19v12.96c0,.19,.07,.37,.19,.52,.5,.64,.94,1.31,1.34,2.02,2.87,5.5,2.87,12.06,0,17.56-1.38,2.52-3.44,4.6-5.95,6.02-5.28,2.88-11.67,2.88-16.95,0-2.5-1.41-4.56-3.5-5.95-6.02-2.87-5.5-2.87-12.06,0-17.56,.42-.75,.9-1.47,1.44-2.15,.05-.07,.08-.15,.08-.23v-13.04c0-.22-.18-.39-.4-.39-.05,0-.1,.01-.15,.03-.48,.22-.95,.46-1.42,.71-4.29,2.25-7.88,5.64-10.37,9.8-2.52,4.25-3.81,9.11-3.74,14.05-.07,4.93,1.23,9.79,3.74,14.04,2.49,4.16,6.08,7.55,10.37,9.81,9.34,4.75,20.38,4.75,29.71,0,4.28-2.27,7.86-5.66,10.37-9.81,2.54-4.24,3.85-9.1,3.78-14.04,.07-4.94-1.24-9.81-3.78-14.05Z"/><path class="cls-1" d="M152.82,25.26c-6.54-2.03-13.54-2.03-20.08,0-.16,.06-.27,.21-.27,.38v11.17c0,.21,.17,.39,.39,.39,.07,0,.15-.02,.21-.06,.4-.29,.82-.55,1.25-.77,2.07-1.01,4.29-1.67,6.58-1.95v-4.86h3.78v4.86c2.29,.27,4.52,.93,6.59,1.93,.43,.25,.85,.51,1.24,.77,.18,.12,.42,.07,.54-.1,.04-.06,.07-.14,.07-.21v-11.17c-.01-.17-.13-.32-.3-.36Z"/></svg>